<svg viewBox="0 0 647.8 145.2" xmlns="http://www.w3.org/2000/svg" xmlns:xlink="http://www.w3.org/1999/xlink" id="Layer_2_00000064320806155188410540000005835018998436572590_" xml:space="preserve" overflow="hidden"><g id="Layer_1-2"><g><rect x="3.5" y="33.8" width="13.6" height="79.3"/><path d="M87.1 46.2C84.5 42 81.2 38.6 77 36.1 72.8 33.6 67.9 32.4 62.3 32.4 55.5 32.4 49.6 33.9 44.6 37 39.6 40.1 35.7 44.6 33 50.6 30.3 56.6 28.9 64.1 28.9 73.1 28.9 82.1 30.2 89.8 32.8 95.9 35.4 102.1 39 106.7 43.8 109.8 48.6 112.9 54.1 114.4 60.6 114.4 66.6 114.4 71.9 113.2 76.3 110.8 80.7 108.4 84.4 105.3 87.2 101.4L87.9 113 100.8 113 100.8 3.5 87.1 3.5 87.1 46.2 87.1 46.2ZM87.1 89.4C84.7 93.3 81.6 96.5 77.7 99.3 73.8 102 69 103.4 63.2 103.4 56.5 103.4 51.5 100.8 48 95.7 44.6 90.5 42.8 83.1 42.8 73.2 42.8 63.4 44.6 56.4 48.3 51.2 52 46 57.4 43.5 64.6 43.5 70.1 43.5 74.6 45 78.2 47.9 81.8 50.8 84.7 54.5 87 58.9L87.1 89.4 87.1 89.4Z"/><path d="M164 99.8C160.6 102.7 155.8 104.1 149.8 104.1 144.1 104.1 139.5 102.8 136 100.2 132.5 97.6 130 94.1 128.4 89.8 126.8 85.5 126 80.8 125.9 75.6L182.4 75.6C182.5 75.1 182.6 74.3 182.6 73.2 182.7 72.1 182.7 71.1 182.7 70.3 182.7 58.1 179.6 48.7 173.5 42.2 167.4 35.7 158.9 32.4 148.1 32.4 140 32.4 133.2 34.1 128 37.6 122.7 41.1 118.8 45.9 116.2 52.1 113.6 58.3 112.3 65.4 112.3 73.5 112.3 81.6 113.6 88.3 116.3 94.5 119 100.7 123 105.6 128.6 109.2 134.1 112.8 141.2 114.6 149.8 114.6 156.5 114.6 162.3 113.5 167.1 111.3 172 109.1 175.8 106 178.5 101.9 181.2 97.9 182.7 93 182.8 87.4L169.4 87.4C169.2 92.8 167.5 97 164 99.8ZM132.6 48.7C136.4 44.8 141.6 42.9 148.2 42.9 154.8 42.9 159.9 44.9 163.6 48.8 167.3 52.7 169.2 58.3 169.4 65.7L126 65.7C126.6 58.2 128.8 52.5 132.6 48.7Z"/><path d="M199.3 96.3C196.7 96.3 194.5 97.1 192.8 98.8 191.1 100.5 190.2 102.6 190.2 105.1 190.2 107.6 191.1 109.7 192.8 111.4 194.5 113.1 196.7 114 199.3 114 201.9 114 204 113.2 205.7 111.4 207.4 109.7 208.2 107.6 208.2 105.1 208.2 102.6 207.4 100.4 205.7 98.8 204 97.1 201.9 96.3 199.3 96.3Z"/><path d="M266.9 35.9C262.7 34 257.7 33.1 251.8 33.1 245.2 33.1 239.6 34.3 235 36.8 230.4 39.2 226.9 42.5 224.6 46.7 222.3 50.9 221.1 55.4 221.1 60.5 221.1 65.3 222.3 69.7 224.6 73.8 226.4 76.9 228.8 79.6 231.9 81.8 228.5 83.2 225.9 84.8 224.2 86.6 222.1 89 221 91.5 221 94.1 221 95.9 221.6 97.9 222.9 99.8 224.2 101.8 226.2 103.6 229.2 105.2 229.6 105.4 229.9 105.6 230.3 105.8 227.5 107 225.1 108.5 223.3 110.2 219.4 113.8 217.4 117.9 217.4 122.5 217.4 126.3 218.5 129.8 220.8 133.1 223.1 136.4 226.8 139 231.9 140.9 237 142.9 243.9 143.8 252.5 143.8 265 143.8 274.5 141.5 280.9 136.9 287.3 132.3 290.5 126.4 290.5 119.3 290.5 112.1 287.7 106.7 282.1 103.3 276.5 99.9 267.2 98.1 254.2 98.1L248.9 98.1C244.6 98.1 241.3 97.8 238.8 97.3 236.3 96.8 234.7 96.1 233.7 95.3 232.7 94.5 232.2 93.5 232.2 92.4 232.2 90.8 233 89.4 234.7 88.1 236 87.1 237.6 86.3 239.5 85.6 243 86.8 247 87.4 251.5 87.4 258.4 87.4 264.1 86.2 268.7 83.7 273.3 81.2 276.7 78 278.9 73.8 281.1 69.7 282.3 65.2 282.3 60.3 282.3 55.4 281.2 50.7 279 46.5 277.6 44 275.8 41.8 273.6 39.9 275.4 37.8 277.5 36.5 280 35.8 283.2 35 286.7 34.6 290.5 34.6L290.5 23.3C284.5 23.5 279.7 24.5 275.9 26.3 272.1 28.1 269.2 31.3 266.9 35.9L266.9 35.9ZM253.5 109.2C259.9 109.2 264.7 109.7 268.2 110.6 271.6 111.5 274 112.8 275.3 114.5 276.6 116.2 277.2 118.1 277.2 120.4 277.2 124.3 275.3 127.5 271.5 130.1 267.7 132.7 261.2 134 252 134 244.1 134 238.4 132.8 235 130.3 231.6 127.8 229.9 125 229.9 121.7 229.9 118.8 230.9 116.2 232.9 114 234.9 111.8 237.8 110.2 241.5 109.3L253.5 109.2 253.5 109.2ZM264.2 73.7C260.8 76.7 256.5 78.2 251.3 78.2 246.7 78.2 242.6 76.7 239.1 73.8 235.6 70.8 233.8 66.4 233.8 60.4 233.8 54.4 235.5 50 238.9 47 242.3 44 246.6 42.4 251.7 42.4 256.8 42.4 261.2 43.9 264.4 46.8 267.6 49.7 269.2 54.3 269.2 60.4 269.2 66.5 267.5 70.7 264.2 73.7L264.2 73.7Z"/><path d="M335.1 32.8 333.5 32.8C327.1 32.8 322 34.2 318 37 314 39.8 310.9 43.2 308.7 47.3L308.2 33.8 295.4 33.8 295.4 113.1 309 113.1 309 57.4C310.7 55 312.7 52.9 314.9 51.1 317.1 49.3 319.7 47.9 322.7 46.8 325.7 45.8 329.2 45.3 333.1 45.3L335 45.3 335.1 32.8 335.1 32.8Z"/><path d="M391.8 37.2C386.2 33.9 379.4 32.2 371.5 32.2 363.6 32.2 357.1 33.9 351.6 37.2 346.1 40.5 341.8 45.2 338.9 51.4 336 57.6 334.5 65 334.5 73.6 334.5 82.2 336 89.3 338.9 95.4 341.8 101.5 346 106.2 351.6 109.5 357.1 112.8 363.8 114.4 371.5 114.4 379.2 114.4 386.2 112.8 391.8 109.5 397.4 106.2 401.7 101.5 404.7 95.4 407.7 89.3 409.2 82 409.2 73.6 409.2 65.2 407.7 57.6 404.7 51.4 401.7 45.3 397.4 40.5 391.8 37.2ZM393 89.1C391.5 93.6 389 97.2 385.5 99.8 382 102.4 377.4 103.7 371.5 103.7 365.6 103.7 361.3 102.4 357.9 99.8 354.6 97.2 352.2 93.7 350.7 89.1 349.2 84.5 348.5 79.4 348.5 73.7 348.5 68 349.2 62.6 350.7 58 352.2 53.4 354.6 49.8 357.9 47.1 361.2 44.5 365.8 43.1 371.5 43.1 377.2 43.1 382 44.4 385.5 47.1 389 49.7 391.5 53.4 393 58 394.5 62.6 395.3 67.9 395.3 73.7 395.3 79.5 394.5 84.5 393 89.1Z"/><path d="M473.2 90C470.8 93.3 467.5 96.1 463.5 98.6 459.5 101.1 454.5 102.3 448.5 102.3 444.2 102.3 440.9 101.5 438.6 99.9 436.3 98.3 434.8 96.1 434 93.3 433.2 90.5 432.8 87.3 432.8 83.7L432.8 33.8 419.1 33.8 419.1 85.6C419.1 94.6 421.1 101.6 425.2 106.7 429.3 111.8 435.9 114.4 445.1 114.4 452.1 114.4 457.9 112.9 462.6 110 467.2 107.1 470.8 104.1 473.4 100.9L473.8 113.1 486.9 113.1 486.9 33.8 473.2 33.8 473.2 90 473.2 90Z"/><path d="M571.1 50.8C568.5 44.7 564.9 40.2 560.1 37.1 555.4 34 549.8 32.5 543.2 32.5 537.3 32.5 532.1 33.8 527.6 36.5 523.1 39.2 519.5 42.6 516.6 46.8L516.2 33.9 503 33.9 503 142.3 516.5 142.3 516.5 102C519.1 105.9 522.4 109 526.7 111.2 530.9 113.5 535.9 114.6 541.5 114.6 548.2 114.6 554.1 113 559.1 109.9 564.1 106.8 568 102.2 570.7 96.1 573.4 90 574.8 82.5 574.8 73.5 574.8 64.5 573.7 56.8 571.1 50.8ZM555.4 95.7C551.7 100.9 546.3 103.5 539.1 103.5 533.7 103.5 529.2 102.2 525.5 99.6 521.8 97 518.9 93.7 516.7 89.5L516.7 58.9C518.9 54.8 522 51.2 526 48.1 530 45 534.9 43.5 540.7 43.5 547.3 43.5 552.3 46.1 555.8 51.2 559.2 56.4 560.9 63.8 560.9 73.5 560.9 83.2 559.1 90.5 555.4 95.7L555.4 95.7Z"/><path d="M635.5 33C635.5 33.5 635.2 33.8 634.7 33.8L619.4 33.8 619.4 49.1C619.4 49.6 619.1 49.9 618.6 49.9L615.1 49.9C614.6 49.9 614.3 49.6 614.3 49.1L614.3 33.8 599 33.8C598.5 33.8 598.2 33.5 598.2 33L598.2 29.5C598.2 29 598.5 28.7 599 28.7L614.3 28.7 614.3 13.4C614.3 12.9 614.6 12.6 615.1 12.6L618.6 12.6C619.1 12.6 619.4 12.9 619.4 13.4L619.4 28.7 634.7 28.7C635.2 28.7 635.5 29 635.5 29.5 635.5 29.5 635.5 33 635.5 33ZM616.9 2.1C600.8 2.1 587.7 15.2 587.7 31.3 587.7 47.4 600.8 60.5 616.9 60.5 633 60.5 646.1 47.4 646.1 31.3 646.1 15.2 633.1 2.1 616.9 2.1" fill="#EB9D19"/><path d="M10.4 3.1C7.8 3.1 5.6 3.9 3.9 5.6 2.2 7.3 1.3 9.4 1.3 11.9 1.3 14.4 2.2 16.5 3.9 18.2 5.6 19.9 7.8 20.8 10.4 20.8 13 20.8 15.1 20 16.8 18.2 18.5 16.5 19.3 14.4 19.3 11.9 19.3 9.4 18.5 7.2 16.8 5.6 15.1 4 12.9 3.1 10.4 3.1Z"/></g></g></svg>