<svg viewBox="0 0 143 32.3" xmlns="http://www.w3.org/2000/svg" xmlns:xlink="http://www.w3.org/1999/xlink" id="Layer_2_00000070077734094934905170000009588512706462123705_" xml:space="preserve" overflow="hidden"><g id="Layer_1-2"><g><rect x="0.9" y="7.7" width="3" height="17.4"/><path d="M19.3 10.4C18.7 9.5 18 8.7 17 8.2 16.1 7.7 15 7.4 13.8 7.4 12.3 7.4 11 7.7 9.9 8.4 8.8 9.1 7.9 10.1 7.3 11.4 6.7 12.7 6.4 14.4 6.4 16.4 6.4 18.4 6.7 20.1 7.3 21.4 7.9 22.7 8.7 23.8 9.7 24.5 10.7 25.2 12 25.5 13.4 25.5 14.7 25.5 15.9 25.2 16.9 24.7 17.9 24.2 18.7 23.5 19.3 22.6L19.5 25.1 22.3 25.1 22.3 1 19.3 1 19.3 10.4 19.3 10.4ZM19.3 19.9C18.8 20.7 18.1 21.5 17.2 22.1 16.3 22.7 15.3 23 14 23 12.5 23 11.4 22.4 10.7 21.3 9.9 20.2 9.6 18.5 9.6 16.4 9.6 14.3 10 12.7 10.8 11.6 11.6 10.5 12.8 9.9 14.4 9.9 15.6 9.9 16.6 10.2 17.4 10.9 18.2 11.5 18.8 12.3 19.3 13.3L19.3 19.9 19.3 19.9Z"/><path d="M36.2 22.2C35.4 22.8 34.4 23.1 33.1 23.1 31.8 23.1 30.8 22.8 30.1 22.2 29.3 21.6 28.8 20.9 28.4 19.9 28 18.9 27.9 17.9 27.9 16.8L40.3 16.8C40.3 16.7 40.3 16.5 40.4 16.3 40.4 16.1 40.4 15.8 40.4 15.7 40.4 13 39.7 11 38.4 9.5 37 8.1 35.2 7.4 32.8 7.4 31 7.4 29.5 7.8 28.4 8.5 27.2 9.3 26.4 10.3 25.8 11.7 25.2 13.1 24.9 14.6 24.9 16.4 24.9 18.2 25.2 19.6 25.8 21 26.4 22.4 27.3 23.4 28.5 24.2 29.7 25 31.3 25.4 33.2 25.4 34.7 25.4 35.9 25.2 37 24.7 38.1 24.2 38.9 23.5 39.5 22.6 40.1 21.7 40.4 20.7 40.5 19.4L37.5 19.4C37.3 20.7 36.9 21.6 36.2 22.2ZM29.3 11C30.1 10.1 31.3 9.7 32.7 9.7 34.2 9.7 35.3 10.1 36.1 11 36.9 11.9 37.3 13.1 37.4 14.7L27.9 14.7C28 13.1 28.4 11.8 29.3 11Z"/><path d="M43.9 21.4C43.3 21.4 42.8 21.6 42.5 21.9 42.1 22.3 41.9 22.7 41.9 23.3 41.9 23.9 42.1 24.3 42.5 24.7 42.9 25.1 43.4 25.3 43.9 25.3 44.4 25.3 44.9 25.1 45.3 24.7 45.7 24.3 45.9 23.9 45.9 23.3 45.9 22.7 45.7 22.3 45.3 21.9 45 21.6 44.5 21.4 43.9 21.4Z"/><path d="M58.8 8.2C57.9 7.8 56.8 7.6 55.5 7.6 54 7.6 52.8 7.9 51.8 8.4 50.8 8.9 50 9.7 49.5 10.6 49 11.5 48.7 12.5 48.7 13.6 48.7 14.7 49 15.6 49.5 16.5 49.9 17.2 50.4 17.8 51.1 18.3 50.3 18.6 49.8 19 49.4 19.4 48.9 19.9 48.7 20.5 48.7 21.1 48.7 21.5 48.8 21.9 49.1 22.4 49.4 22.8 49.8 23.2 50.5 23.6 50.6 23.6 50.7 23.7 50.8 23.7 50.2 24 49.7 24.3 49.3 24.7 48.4 25.5 48 26.4 48 27.4 48 28.2 48.3 29 48.8 29.7 49.3 30.4 50.1 31 51.2 31.4 52.3 31.8 53.8 32 55.7 32 58.5 32 60.5 31.5 61.9 30.5 63.3 29.5 64 28.2 64 26.6 64 25 63.4 23.8 62.2 23.1 61 22.3 58.9 22 56.1 22L54.9 22C54 22 53.2 21.9 52.7 21.8 52.2 21.7 51.8 21.5 51.6 21.4 51.4 21.2 51.3 21 51.3 20.8 51.3 20.5 51.5 20.1 51.9 19.9 52.2 19.7 52.5 19.5 53 19.3 53.8 19.6 54.7 19.7 55.6 19.7 57.1 19.7 58.4 19.4 59.4 18.9 60.4 18.4 61.2 17.6 61.6 16.7 62.1 15.8 62.3 14.8 62.3 13.7 62.3 12.6 62.1 11.6 61.6 10.7 61.3 10.1 60.9 9.7 60.4 9.2 60.8 8.7 61.3 8.4 61.8 8.3 62.4 8 63.1 7.9 64 7.9L64 5.4C62.7 5.4 61.6 5.7 60.8 6.1 60 6.4 59.3 7.1 58.8 8.2L58.8 8.2ZM55.9 24.3C57.3 24.3 58.4 24.4 59.1 24.6 59.9 24.8 60.4 25.1 60.7 25.5 61 25.9 61.1 26.3 61.1 26.8 61.1 27.6 60.7 28.4 59.9 28.9 59.1 29.5 57.6 29.8 55.6 29.8 53.9 29.8 52.6 29.5 51.9 29 51.1 28.5 50.8 27.8 50.8 27.1 50.8 26.5 51 25.9 51.5 25.4 51.9 24.9 52.6 24.6 53.4 24.4L55.9 24.3 55.9 24.3ZM58.2 16.5C57.5 17.2 56.5 17.5 55.4 17.5 54.4 17.5 53.5 17.2 52.7 16.5 51.9 15.8 51.5 14.9 51.5 13.6 51.5 12.3 51.9 11.3 52.6 10.6 53.3 9.9 54.3 9.6 55.4 9.6 56.5 9.6 57.5 9.9 58.2 10.6 58.9 11.3 59.3 12.3 59.3 13.6 59.3 14.9 59 15.8 58.2 16.5L58.2 16.5Z"/><path d="M73.8 7.5 73.4 7.5C72 7.5 70.9 7.8 70 8.4 69.1 9 68.4 9.8 68 10.7L67.9 7.7 65.1 7.7 65.1 25.1 68.1 25.1 68.1 12.9C68.5 12.4 68.9 11.9 69.4 11.5 69.9 11.1 70.5 10.8 71.1 10.6 71.8 10.4 72.5 10.3 73.4 10.3L73.8 10.3 73.8 7.5 73.8 7.5Z"/><path d="M86.3 8.4C85.1 7.7 83.6 7.3 81.8 7.3 80.1 7.3 78.6 7.7 77.4 8.4 76.2 9.1 75.3 10.2 74.6 11.5 73.9 12.8 73.6 14.5 73.6 16.4 73.6 18.3 73.9 19.8 74.6 21.2 75.2 22.5 76.2 23.6 77.4 24.3 78.6 25 80.1 25.4 81.8 25.4 83.5 25.4 85 25 86.3 24.3 87.5 23.6 88.5 22.5 89.1 21.2 89.7 19.9 90.1 18.3 90.1 16.4 90.1 14.5 89.8 12.9 89.1 11.5 88.5 10.2 87.5 9.2 86.3 8.4ZM86.5 19.8C86.2 20.8 85.6 21.6 84.9 22.1 84.1 22.7 83.1 23 81.8 23 80.5 23 79.6 22.7 78.8 22.1 78.1 21.5 77.5 20.8 77.2 19.8 76.9 18.8 76.7 17.7 76.7 16.4 76.7 15.1 76.9 14 77.2 12.9 77.5 11.8 78.1 11.1 78.8 10.5 79.5 9.9 80.5 9.6 81.8 9.6 83.1 9.6 84.1 9.9 84.9 10.5 85.7 11.1 86.2 11.9 86.5 12.9 86.8 13.9 87 15.1 87 16.4 87 17.7 86.9 18.8 86.5 19.8Z"/><path d="M104.2 20C103.7 20.7 103 21.3 102.1 21.9 101.2 22.4 100.1 22.7 98.8 22.7 97.9 22.7 97.1 22.5 96.6 22.2 96.1 21.9 95.8 21.4 95.6 20.7 95.4 20 95.3 19.4 95.3 18.6L95.3 7.6 92.3 7.6 92.3 19C92.3 21 92.7 22.5 93.6 23.6 94.5 24.7 96 25.3 98 25.3 99.5 25.3 100.8 25 101.8 24.3 102.8 23.7 103.6 23 104.2 22.3L104.3 25 107.2 25 107.2 7.7 104.2 7.7 104.2 20 104.2 20Z"/><path d="M125.7 11.4C125.1 10.1 124.3 9.1 123.3 8.4 122.3 7.7 121 7.4 119.6 7.4 118.3 7.4 117.2 7.7 116.2 8.3 115.2 8.9 114.4 9.6 113.8 10.6L113.7 7.8 110.8 7.8 110.8 31.7 113.8 31.7 113.8 22.8C114.4 23.7 115.1 24.3 116 24.8 116.9 25.3 118 25.5 119.3 25.5 120.8 25.5 122.1 25.2 123.2 24.5 124.3 23.8 125.1 22.8 125.8 21.5 126.4 20.2 126.7 18.5 126.7 16.5 126.7 14.5 126.3 12.8 125.7 11.4ZM122.3 21.3C121.5 22.4 120.3 23 118.7 23 117.5 23 116.5 22.7 115.7 22.1 114.9 21.5 114.2 20.8 113.8 19.9L113.8 13.2C114.3 12.3 115 11.5 115.9 10.8 116.8 10.1 117.9 9.8 119.1 9.8 120.6 9.8 121.7 10.4 122.4 11.5 123.2 12.6 123.5 14.3 123.5 16.4 123.5 18.5 123.1 20.2 122.3 21.3L122.3 21.3Z"/><path d="M139.9 7.5C139.9 7.6 139.8 7.7 139.7 7.7L136.3 7.7 136.3 11C136.3 11.1 136.2 11.2 136.1 11.2L135.3 11.2C135.2 11.2 135.1 11.1 135.1 11L135.1 7.7 131.7 7.7C131.6 7.7 131.5 7.6 131.5 7.5L131.5 6.7C131.5 6.6 131.6 6.5 131.7 6.5L135.1 6.5 135.1 3.2C135.1 3.1 135.2 3 135.3 3L136.1 3C136.2 3 136.3 3.1 136.3 3.2L136.3 6.6 139.7 6.6C139.8 6.6 139.9 6.7 139.9 6.8 139.9 6.7 139.9 7.5 139.9 7.5ZM135.8 0.7C132.3 0.7 129.4 3.6 129.4 7.1 129.4 10.6 132.3 13.5 135.8 13.5 139.3 13.5 142.2 10.6 142.2 7.1 142.2 3.6 139.4 0.7 135.8 0.7" fill="#EB9D19"/><path d="M2.4 0.9C1.8 0.9 1.3 1.1 1 1.4 0.7 1.7 0.4 2.3 0.4 2.9 0.4 3.5 0.6 3.9 1 4.3 1.4 4.7 1.9 4.9 2.4 4.9 2.9 4.9 3.4 4.7 3.8 4.3 4.2 3.9 4.4 3.5 4.4 2.9 4.4 2.3 4.2 1.9 3.8 1.5 3.4 1.1 2.9 0.9 2.4 0.9Z"/></g></g></svg>